<svg width="84" height="84" viewBox="0 0 84 84" fill="none" xmlns="http://www.w3.org/2000/svg">
<path d="M40.145 56.973C40.6372 57.4646 41.3043 57.7407 42 57.7407C42.6956 57.7407 43.3628 57.4646 43.855 56.973L51.73 49.1015C52.1937 48.6039 52.4461 47.9458 52.4341 47.2657C52.4221 46.5856 52.1466 45.9368 51.6656 45.4559C51.1847 44.9749 50.5359 44.6994 49.8558 44.6874C49.1757 44.6754 48.5176 44.9278 48.02 45.3915L42 51.401L35.98 45.3845C35.7377 45.1339 35.448 44.9341 35.1276 44.7967C34.8073 44.6593 34.4628 44.587 34.1143 44.5841C33.7657 44.5813 33.4201 44.6479 33.0976 44.78C32.775 44.9121 32.482 45.1072 32.2357 45.3538C31.9893 45.6004 31.7946 45.8935 31.6627 46.2162C31.5309 46.5389 31.4646 46.8845 31.4678 47.2331C31.471 47.5816 31.5436 47.926 31.6813 48.2462C31.819 48.5664 32.0191 48.856 32.27 49.098L40.145 56.973ZM42 31.6925C41.2574 31.6925 40.5452 31.3975 40.0201 30.8724C39.495 30.3473 39.2 29.6351 39.2 28.8925C39.2 28.1499 39.495 27.4377 40.0201 26.9126C40.5452 26.3875 41.2574 26.0925 42 26.0925C42.7426 26.0925 43.4548 26.3875 43.9799 26.9126C44.505 27.4377 44.8 28.1499 44.8 28.8925C44.8 29.6351 44.505 30.3473 43.9799 30.8724C43.4548 31.3975 42.7426 31.6925 42 31.6925ZM39.2 38.7485C39.2 39.1162 39.2724 39.4803 39.4131 39.82C39.5538 40.1598 39.7601 40.4684 40.0201 40.7284C40.2801 40.9884 40.5887 41.1947 40.9285 41.3354C41.2682 41.4761 41.6323 41.5485 42 41.5485C42.3677 41.5485 42.7318 41.4761 43.0715 41.3354C43.4112 41.1947 43.7199 40.9884 43.9799 40.7284C44.2399 40.4684 44.4461 40.1598 44.5868 39.82C44.7275 39.4803 44.8 39.1162 44.8 38.7485C44.8 38.0059 44.505 37.2937 43.9799 36.7686C43.4548 36.2435 42.7426 35.9485 42 35.9485C41.2574 35.9485 40.5452 36.2435 40.0201 36.7686C39.495 37.2937 39.2 38.0059 39.2 38.7485Z" fill="white"/>
</svg>
